<svg width="64" height="64" viewBox="0 0 64 64" fill="none" xmlns="http://www.w3.org/2000/svg">
  <defs>
    <linearGradient id="grad1" x1="0%" y1="0%" x2="100%" y2="100%">
      <stop offset="0%" style="stop-color:#22c55e;stop-opacity:1" />
      <stop offset="100%" style="stop-color:#06b6d4;stop-opacity:1" />
    </linearGradient>
  </defs>
  <rect width="64" height="64" rx="16" fill="url(#grad1)"/>
  <path d="M32 8L36.12 21.06C36.75 23.05 38.35 24.65 40.34 25.28L53.4 29.4L40.34 33.52C38.35 34.15 36.75 35.75 36.12 37.74L32 50.8L27.88 37.74C27.25 35.75 25.65 34.15 23.66 33.52L10.6 29.4L23.66 25.28C25.65 24.65 27.25 23.05 27.88 21.06L32 8Z" fill="white"/>
  <path d="M50 10V14M52 12H48" stroke="white" stroke-width="3" stroke-linecap="round"/>
  <path d="M14 50V54M16 52H12" stroke="white" stroke-width="3" stroke-linecap="round"/>
</svg>